<svg xmlns="http://www.w3.org/2000/svg" width="1200" height="675" viewBox="0 0 1200 675" fill="none">
  <rect width="1200" height="675" fill="#0d0d12"/>
  <rect x="80" y="48" width="1040" height="580" rx="16" fill="#14141c" stroke="#2a2a38" stroke-width="2"/>
  <rect x="80" y="48" width="1040" height="44" rx="16" fill="#1c1c26"/>
  <circle cx="108" cy="70" r="6" fill="#ff5f57"/><circle cx="130" cy="70" r="6" fill="#febc2e"/><circle cx="152" cy="70" r="6" fill="#28c840"/>
  <rect x="200" y="58" width="300" height="24" rx="6" fill="#0d0d12"/>
  <text x="220" y="74" fill="#666" font-family="system-ui" font-size="11">alumnisetu.app/feed</text>
  <rect x="280" y="108" width="640" height="500" rx="10" fill="#12121a"/>
  <rect x="300" y="130" width="600" height="80" rx="10" fill="#1a1a28" stroke="#2d2d42"/>
  <circle cx="340" cy="170" r="24" fill="#2a2a40"/>
  <rect x="380" y="155" width="200" height="10" rx="3" fill="#5b6ee8"/>
  <rect x="380" y="175" width="400" height="8" rx="2" fill="#333"/>
  <rect x="300" y="230" width="600" height="80" rx="10" fill="#1a1a28" stroke="#2d2d42"/>
  <rect x="300" y="330" width="600" height="80" rx="10" fill="#1a1a28" stroke="#2d2d42"/>
  <rect x="300" y="430" width="600" height="80" rx="10" fill="#1a1a28" stroke="#2d2d42"/>
</svg>
