<svg xmlns="http://www.w3.org/2000/svg" width="1200" height="675" viewBox="0 0 1200 675" fill="none">
  <rect width="1200" height="675" fill="#0d0d12"/>
  <rect x="80" y="48" width="1040" height="580" rx="16" fill="#14141c" stroke="#2a2a38" stroke-width="2"/>
  <rect x="80" y="48" width="1040" height="44" rx="16" fill="#1c1c26"/>
  <circle cx="108" cy="70" r="6" fill="#ff5f57"/><circle cx="130" cy="70" r="6" fill="#febc2e"/><circle cx="152" cy="70" r="6" fill="#28c840"/>
  <rect x="200" y="58" width="360" height="24" rx="6" fill="#0d0d12"/>
  <text x="220" y="74" fill="#666" font-family="system-ui" font-size="11">alumnisetu.app/dashboard</text>
  <rect x="100" y="108" width="220" height="500" rx="10" fill="#18182a" stroke="#2d2d40"/>
  <rect x="120" y="130" width="80" height="10" rx="3" fill="#5b6ee8"/>
  <rect x="120" y="160" width="160" height="8" rx="2" fill="#333"/>
  <rect x="120" y="180" width="140" height="8" rx="2" fill="#2a2a35"/>
  <rect x="120" y="220" width="180" height="48" rx="8" fill="#1e1e30" stroke="#3d3d55"/>
  <rect x="120" y="290" width="180" height="48" rx="8" fill="#1e1e30" stroke="#3d3d55"/>
  <rect x="340" y="108" width="760" height="500" rx="10" fill="#12121a"/>
  <text x="360" y="140" fill="#888" font-family="system-ui" font-size="12" font-weight="600">Alumni Network</text>
  <circle cx="400" cy="200" r="32" fill="#2a2a40" stroke="#5b6ee8" stroke-width="2"/>
  <circle cx="520" cy="200" r="32" fill="#2a2a40" stroke="#5b6ee8" stroke-width="2"/>
  <circle cx="640" cy="200" r="32" fill="#2a2a40" stroke="#5b6ee8" stroke-width="2"/>
  <rect x="380" y="260" width="200" height="10" rx="3" fill="#333"/>
  <rect x="500" y="260" width="200" height="10" rx="3" fill="#333"/>
  <rect x="620" y="260" width="200" height="10" rx="3" fill="#333"/>
  <rect x="360" y="320" width="720" height="120" rx="10" fill="#1a1a28" stroke="#2d2d42"/>
  <rect x="380" y="340" width="400" height="12" rx="3" fill="#5b6ee8" opacity="0.7"/>
  <rect x="380" y="362" width="600" height="8" rx="2" fill="#333"/>
  <rect x="380" y="378" width="500" height="8" rx="2" fill="#2a2a35"/>
  <rect x="360" y="460" width="340" height="130" rx="10" fill="#1a1a28" stroke="#2d2d42"/>
  <rect x="720" y="460" width="360" height="130" rx="10" fill="#1a1a28" stroke="#5b6ee8" stroke-width="1.5"/>
  <text x="740" y="490" fill="#5b6ee8" font-family="system-ui" font-size="11">Live Messages</text>
</svg>
