<svg xmlns="http://www.w3.org/2000/svg" width="1200" height="675" viewBox="0 0 1200 675" fill="none">
  <rect width="1200" height="675" fill="#0c0c14"/>
  <rect x="80" y="48" width="1040" height="580" rx="12" fill="#12121c" stroke="#2a2a40"/>
  <circle cx="108" cy="70" r="5" fill="#ff5f57"/><circle cx="126" cy="70" r="5" fill="#febc2e"/><circle cx="144" cy="70" r="5" fill="#28c840"/>
  <text x="180" y="74" fill="#94a3b8" font-family="system-ui" font-size="11">beckn-gateway.local/booking</text>
  <text x="120" y="130" fill="#818cf8" font-family="system-ui" font-size="14" font-weight="600">Beckn Slot Booking</text>
  <rect x="120" y="160" width="200" height="70" rx="8" fill="#1a1a28" stroke="#818cf8"/><text x="145" y="205" fill="#818cf8" font-size="12" font-family="system-ui">Gateway</text>
  <text x="340" y="200" fill="#818cf8" font-size="18">→</text>
  <rect x="370" y="160" width="200" height="70" rx="8" fill="#1a1a28" stroke="#2a2a40"/><text x="410" y="205" fill="#ccc" font-size="12" font-family="system-ui">BAP</text>
  <text x="590" y="200" fill="#818cf8" font-size="18">→</text>
  <rect x="620" y="160" width="200" height="70" rx="8" fill="#1a1a28" stroke="#2a2a40"/><text x="660" y="205" fill="#ccc" font-size="12" font-family="system-ui">BPP</text>
  <text x="840" y="200" fill="#818cf8" font-size="18">→</text>
  <rect x="870" y="160" width="200" height="70" rx="8" fill="#1a1a28" stroke="#818cf8"/><text x="910" y="205" fill="#818cf8" font-size="12" font-family="system-ui">AI Service</text>
  <rect x="120" y="280" width="950" height="280" rx="10" fill="#0e0e16" stroke="#2a2a40"/>
  <rect x="150" y="320" width="890" height="40" rx="6" fill="#16161f"/>
  <rect x="150" y="380" width="890" height="40" rx="6" fill="#16161f"/>
  <rect x="150" y="440" width="890" height="40" rx="6" fill="#818cf8" opacity="0.1"/>
</svg>
