<svg xmlns="http://www.w3.org/2000/svg" width="1200" height="675" viewBox="0 0 1200 675" fill="none">
  <rect width="1200" height="675" fill="#0f0d0a"/>
  <rect x="80" y="48" width="1040" height="580" rx="16" fill="#16120e" stroke="#3d3020"/>
  <text x="120" y="100" fill="#f59e0b" font-family="system-ui" font-size="14" font-weight="700">BLOCKCHAIN SIMULATOR</text>
  <rect x="120" y="130" width="300" height="200" rx="10" fill="#1a1610" stroke="#3d3020"/>
  <text x="140" y="160" fill="#888" font-size="11">Mining Difficulty</text>
  <rect x="140" y="180" width="260" height="8" rx="4" fill="#333"/>
  <rect x="140" y="180" width="180" height="8" rx="4" fill="#f59e0b"/>
  <rect x="120" y="360" width="460" height="220" rx="10" fill="#1a1610" stroke="#3d3020"/>
  <path d="M160 520 L220 460 L280 480 L340 400 L400 440 L460 380 L520 420" stroke="#f59e0b" stroke-width="2" fill="none"/>
  <rect x="620" y="130" width="460" height="450" rx="10" fill="#1a1610" stroke="#f59e0b" stroke-width="1.5"/>
  <text x="640" y="160" fill="#f59e0b" font-size="12">ML Predictions — 90% accuracy</text>
  <rect x="640" y="180" width="180" height="60" rx="8" fill="#f59e0b" opacity="0.15"/>
  <text x="660" y="218" fill="#ccc" font-size="11">Throughput: 142 tx/s</text>
</svg>
