<svg xmlns="http://www.w3.org/2000/svg" width="1200" height="675" viewBox="0 0 1200 675" fill="none">
  <rect width="1200" height="675" fill="#0c0c14"/>
  <rect x="80" y="48" width="1040" height="580" rx="16" fill="#12121c" stroke="#2a2a40"/>
  <circle cx="108" cy="70" r="6" fill="#ff5f57"/><circle cx="130" cy="70" r="6" fill="#febc2e"/><circle cx="152" cy="70" r="6" fill="#28c840"/>
  <text x="200" y="74" fill="#818cf8" font-family="system-ui" font-size="11">smartquotation-app.vercel.app</text>
  <rect x="100" y="108" width="220" height="500" rx="10" fill="#16161f"/>
  <text x="120" y="140" fill="#818cf8" font-size="13" font-weight="700" font-family="system-ui">SmartQuote</text>
  <rect x="120" y="160" width="180" height="32" rx="6" fill="#818cf8" opacity="0.15"/>
  <rect x="340" y="108" width="760" height="500" rx="10" fill="#0e0e16"/>
  <text x="360" y="140" fill="#888" font-size="12" font-family="system-ui">Product Catalog — 1,000+ SKUs</text>
  <rect x="360" y="160" width="720" height="40" rx="8" fill="#1a1a28" stroke="#2a2a40"/>
  <text x="380" y="186" fill="#666" font-size="12">Search products...</text>
  <rect x="360" y="220" width="720" height="48" rx="6" fill="#16161f"/><rect x="360" y="280" width="720" height="48" rx="6" fill="#16161f"/><rect x="360" y="340" width="720" height="48" rx="6" fill="#16161f"/>
  <rect x="360" y="420" width="200" height="48" rx="24" fill="#818cf8"/>
  <text x="460" y="450" text-anchor="middle" fill="#fff" font-size="13" font-weight="600" font-family="system-ui">Generate Quote</text>
</svg>
