<svg xmlns="http://www.w3.org/2000/svg" width="1200" height="675" viewBox="0 0 1200 675" fill="none">
  <rect width="1200" height="675" fill="#0a0a10"/>
  <text x="100" y="80" fill="#a78bfa" font-family="system-ui" font-size="13" font-weight="600">ROC / EER Analysis</text>
  <rect x="100" y="100" width="500" height="400" rx="12" fill="#111118" stroke="#28283a"/>
  <path d="M140 440 Q200 400 280 360 T440 280 T560 220 T660 180" stroke="#7c5ce8" stroke-width="3" fill="none"/>
  <path d="M140 440 Q300 380 500 260" stroke="#444" stroke-width="1.5" stroke-dasharray="6 4" fill="none"/>
  <line x1="140" y1="440" x2="660" y2="180" stroke="#333"/>
  <text x="120" y="470" fill="#666" font-size="11">FRR</text>
  <text x="640" y="170" fill="#666" font-size="11">FAR</text>
  <circle cx="490" cy="295" r="8" fill="#a78bfa"/>
  <text x="510" y="300" fill="#a78bfa" font-size="12">EER 5.96%</text>
  <rect x="650" y="100" width="450" height="180" rx="12" fill="#111118" stroke="#28283a"/>
  <text x="670" y="130" fill="#888" font-size="11">Similarity Matrix</text>
  <rect x="670" y="150" width="30" height="30" fill="#1a1030"/><rect x="705" y="150" width="30" height="30" fill="#2a1850"/>
  <rect x="740" y="150" width="30" height="30" fill="#4a2880"/><rect x="775" y="150" width="30" height="30" fill="#7c5ce8"/>
  <rect x="650" y="310" width="450" height="190" rx="12" fill="#111118" stroke="#28283a"/>
  <text x="670" y="340" fill="#ccc" font-size="12">16.2M pairwise comparisons</text>
  <text x="670" y="370" fill="#888" font-size="11">Cosine threshold: 0.8932</text>
</svg>
